<?xml version="1.0" encoding="UTF-8" standalone="no"?>
<!-- Created with Inkscape (http://www.inkscape.org/) -->
<svg xmlns:rdf="http://www.w3.org/1999/02/22-rdf-syntax-ns#" xmlns="http://www.w3.org/2000/svg" height="862.5" width="616.17" version="1.1" xmlns:cc="http://creativecommons.org/ns#" xmlns:dc="http://purl.org/dc/elements/1.1/">
<metadata>
<rdf:RDF>
<cc:Work rdf:about="">
<dc:format>image/svg+xml</dc:format>
<dc:type rdf:resource="http://purl.org/dc/dcmitype/StillImage"/>
<dc:title/>
</cc:Work>
</rdf:RDF>
</metadata>
<g transform="translate(-39.333333,-94.528849)">
<path style="stroke-linejoin:miter;stroke-dashoffset:0;stroke:#c6ecff;stroke-linecap:square;stroke-miterlimit:4;stroke-dasharray:none;stroke-width:1.245;fill:#c6ecff;" d="m443.55,175.88c-4.2041-7.1737-6.9448-7.465-18.722-4.0796-4.5321,1.3027-5.3808,0.86583-10.647-1.717-6.841-3.3551-10.812-3.6548-17.701-0.44796-2.9421,1.3696-6.6226,3.2402-7.7206,3.2402-1.4611,0-4.9253-1.5947-6.7019-2.8684s-2.1157-3.4763-2.8264-5.1922c-1.0832-2.6152-1.093-3.4233,0.79964-6.4857,2.4367-3.9426,2.4251-5.3785-2.2403-9.7146-3.6289-3.3727-8.4482-5.3642-11.512-5.3642-2.7576,0-10.906-3.7064-14.144-6.7094-1.2072-1.1196-3.8947-3.7011-4.4445-5.2782-0.93767-2.6898-1.7241-3.4322,2.4449-6.3005,2.4445-1.6819,4.9445-3.9631,4.9445-4.4584,0-0.49524,0.5756-1.1577-0.70699-2.5417-0.66462-0.71714-2.6599-1.4874-2.987-2.4269-0.3271-0.93947,0.014-2.7982,0.022-3.6922,0.008-0.89407,0.18304-2.6985,0.5238-3.2794,0.34075-0.5809,1.5973-1.0633,2.2684-1.0633,1.86,0,0.93778-4.2399-1.4115-9.4833-0.83579-1.8654-1.7716-6.3019-2.0796-9.2476-0.30798-2.9457-2.7949-5.3152-3.3876-6.0293-1.3684-1.6489,1.2403-7.5863,3.3564-9.2667,1.8309-1.4539,1.5903-2.4606-1.6023-4.2813-1.029-0.58676-3.4483-2.5507-4.7653-4.0588s-3.5826-3.5176-5.1874-4.4656c-2.6595-1.571-3.0428-2.3341-3.0428-7.332,0-5.2616,0.42933-5.4175-4.2122-9.7844-1.3712-1.2901-3.3248-1.534-4.3589-2.5425s-1.1487-3.6565-1.8418-4.505c-1.3863-1.6968-2.0871-3.1951-2.0871-4.981,0-3.8953,1.4088-6.3947,3.732-6.4308,2.0445-0.03174,6.393-2.5897,6.393-3.9175,0-0.34661,1.1049-1.7245,2.1499-3.2147,3.5008-4.9927,3.9134-7.1086,0.0799-11.587-1.9139-2.2359-8.4798-5.2063-8.4798-5.5314,0-0.32507,68.7-0.21604,146.25-0.21604h141.62v58.281l-0.125,61.156-4.0129-3.8281c-1.0355-0.9878-5.4644-1.04-5.9124-1.4822-0.44806-0.44227,2.7521-1.5817,2.977-2.2902,0.31759-1.0006-1.0374-2.0108-1.4833-2.7033-0.4459-0.69242-1.0624-2.0762-1.0646-3.6861-0.003-2.4598,0.72728-2.938-2.0038-3.6536-2.5274-0.66215-4.5-1.2601-4.5-3.1265,0-2.699-0.62543-5.2849-4.7039-7.394-1.5204-0.78624-3.3324-2.3008-4.0266-3.9767-0.99353-2.3986-1.6251-4.2972-3.892-4.2972-2.0378,0-4.5151,0.46387-6.9454-2.5567l-3.5656-4.4317-4.5583,3.4877c-2.7598,2.1116-4.8083,3.8862-4.8083,4.8317,0,0.94545,0.825,2.169,2.75,4.094s4.0183,4.5825,4.0406,5.6c0.0224,1.0175,1.6224,3.783,3.25,5.6872,1.9126,2.2376,3.3344,4.9453,3.3344,6.97,0,3.0959-2.3868,7.0678-4.7104,7.0678-0.64783,0-3.0624,1.2914-4.2963,2.717-3.106,3.5887-5.0282,4.7777-13.103,6.3178-2.2738,0.43366-4.6047,0.84998-6.2835,1.2016-1.6788,0.35161-3.3305,0.38853-4.496,0.56337s-2.2198-0.63739-2.9538-0.73405c-0.73396-0.0967-1.2726-0.35278-1.6568-0.81569-0.68469-0.825-1.4855-1.5-1.9324-1.5-0.44685,0-1.79-0.96672-3.2904-1.5372-2.0733-0.78827-3.6989-1.6912-2.8151-2.575,0.63956-0.63956,1.0378-3.2615,1.0378-4.4515,0-2.3032-3.5916-6.0614-5.5956-6.0614-0.65882,0-3.5174-1.675-6.658-3.875s-5.8673-4.375-6.212-4.375c-0.34477,0-0.81031,0.85664-1.7984,1.7509-1.3,1.1764-1.6651,0.85505-0.9938,2.1094,0.51027,0.95345,0.53691,5.2468,0.21198,7.2491-0.69664,4.2929-4.3682,4.4817-7.5306,1.0873-1.9113-2.0515-1.2609-1.612-7.0297-0.53916-9.2698,1.7239-10.644,1.6529-10.644,8.0855,0,4.052,0.47726,5.2539,2,6.6319,1.7143,1.5514,3.1298,3.3046,2.6746,4.7075-0.45519,1.403-3.4061,2.9557-6.1746,4.1062-5.3082,2.206-5.2491,3.2867-2.4667,6.3612,2.6842,2.966,0.0844,11.974-4.9421,17.364-2.2326,2.3942-3.8412,5.381-3.8412,6.6721,0,2.8638-1.764,4.1395-5.625,4.5751-2.6011,0.29349-3.2589,0.39344-4.1323,4.0124-0.55401,2.2957-0.97901,4.879-1.25,5.1296-0.27098,0.25058-4.7745,0.66395-9.5274,1.1583l-9.1596,0.95267z" transform="translate(39.333333,94.528849)"/>
<path style="stroke-linejoin:miter;stroke-dashoffset:0;stroke:#fefbf4;stroke-linecap:square;stroke-miterlimit:4;stroke-dasharray:none;stroke-width:1.245;fill:#fefbf4;" d="m584.47,705.48c-23.637-22.18-32.621-29.265-44.454-43.549-13.958-16.847-13.755-17.742-18.936-19.375-7.6998-2.4271-9.4473-2.288-14.076,1.6736-4.5926,3.9311-8.0742,4.2944-7.33,1.4486,0.32467-1.2415,0.17933-2.8247-1.3152-4-6.0698-4.7732-10.876-10.722-10.876-12.831,0-2.8623,4.9988-12.031,8.4856-14.956,1.4517-1.2177,2.9135-2.6052,4.6235-2.625l4.359-0.411,0.64533-7.4654c0.39583-4.579,0.99322-9.3489,1.5712-10.429,1.2191-2.2778,0.70408-2.2134-2.4346-3.8662-1.4401-0.75838-2-2.2327-2-3.8735,0-1.5848-1.2303-3.5309-3.0173-5.4989l-2.8923-3.1853,1.1423-3.7803c1.0854-3.5922,2.605-4.4695,0.35673-6.9538-2.1581-2.3847-0.30575-4.2655,3.087-2.9756,6.1462,2.3368,5.6228,2.7115,7.2197-7.8933,0.55799-3.7055,1.1937-4.4725,4.6988-5.875,5.311-2.125,11.059-3.2373,15.78-0.82869,5.429,2.7697,5.9163,3.9134,10.889-0.24083,4.0137-3.3533,5.4436-5.2031,10.116-4.7209,5.4479,0.56228,7.9958,0.97977,7.9958-1.9642,0-3.3371,2.1585-6.2433,9.2903-10.443,13.211-7.7807,14.877-7.1918,11.199-12.804-1.2315-1.8789-3.3246-4.2524-3.8876-5.1216-3.4814-5.3761-3.7226-7.4774-3.452-15.045,0.25004-6.9914,0.6594-7.6016-1.3676-9.7593-1.4554-1.5492-2.8016-2.0871-3.965-1.7178-2.816,0.89375-2.67-3.9259,0.79976-7.1671,4.0874-3.8182,8.7937-4.6413,12.064-2.5755,5.753,3.6341,5.6041,4.9333,8.3596,3.9702,2.216-0.77453,3.0174-0.8966,3.2765-4.0363,0.28337-3.4344,0.33344-3.3023-3.7676-7.2318-2.5214-2.4159-4.7751-4.2676-5.3139-4.2676-0.53876,0-3.5309-2.0024-5.7324-3.9914-3.3062-2.987-4.6279-4.3894-4.6279-7.4645,0-2.9864,0.38743-4.0703-1.589-4.9708-1.3599-0.61963-3.6038-2.8719-5.0077-5.6425-4.0398-7.972-7.9748-9.2554-17.903-6.253-2.2064,0.66721-3-0.47944-3-8.5601,0-7.949-0.0165-8.0775-3.875-13.856-2.2-3.2945-4.125-7.5072-4.125-8.7504,0-4.3639,2.7164-11.324,10.61-23.487,8.2235-12.671,10.434-15.976,15.537-19.658l3.4773-2.5089-0.75-2.9279c-1.5756-6.1508-7.1063-10.18-9.8681-10.173-1.5956,0.004-2.8192,0.61953-3.9604,2.625-2.117,3.7203-5.4753,4.3531-8.2239,0.85881-2.9714-3.7776-3.8497-9.957-0.55964-12.545,2.6272-2.0666,14.527-6.9452,17.784-6.9452,3.9792,0,47.241-13.03,51.453-14.612l4-5.597,0.25,213.04c0.13643,116.26-0.1323,212.42-0.61135,212.42-0.47374,0-14.18-15.638-30.152-30.625z" transform="translate(39.333333,94.528849)"/>
<path style="stroke-linejoin:miter;stroke-dashoffset:0;stroke:#fefbf4;stroke-linecap:square;stroke-miterlimit:4;stroke-dasharray:none;stroke-width:1.245;fill:#fefbf4;" d="m610.43,300.49c-0.80092-1.9168-2.1385-7.9362-4.0418-15.362-1.9033-7.4262-4.5698-15.297-5.4672-17.032-1.623-3.1386-1.2442-4.1519,1.0928-3.5263,1.2922,0.34594,4.9619,0.13513,7.8494,0.14264l5.25,0.1386,0.125,20.375c0.12338,20.111-0.2661,42.47-3.1832,28.89z" transform="translate(39.333333,94.528849)"/>
<path style="stroke-linejoin:miter;stroke-dashoffset:0;stroke:#c6ecff;stroke-linecap:square;stroke-miterlimit:4;stroke-dasharray:none;stroke-width:1.245;fill:#c6ecff;" d="m441.57,353.52c0.58196-1.0874,7.5853-11.137,8.5352-11.638,1.2185-0.64269,4.1612-1.2007,8.0438-1.9849,3.8826-0.78421,8.7052-1.7946,13.683-2.3421,12.888-1.4174,37.691-4.5309,42.636-6.0147,2.9918-0.89778,5.2176-2.398,6.4666-4.4518,3.6988-6.0822,3.4647-7.1623-2.444-17.175-7.2663-12.314-10.55-21.754-9.5956-29.388,0.46559-3.7264,1.1898-6.6967,3.8198-9.4028,2.63-2.7062,8.4159-5.3982,17.505-10.068,20.359-10.461,25.027-11.952,36.339-13.317,6.9075-0.83336,10.643-1.2319,11.05-2.2943,0.75867-1.9771-6.65-10.534-10.371-12.719-2.0558-1.2071-4.4062-2.2271-10.158-2.2788-5.6301-0.0506-8.4807-0.12362-9.2769-1.0829-0.63212-0.76166-1.9264-4.9776-2.2652-8.6048-0.54859-5.8747-0.85622-7.4739,1.2614-10.564,2.1302-3.1088,3.2223-4.2158,9.4311-5.2631,4.8555-0.81899,7.503-1.1179,9.1405-2.7553,3.0071-3.0071,3.1931-3.2468-0.26499-6.3279-2.4023-2.1404-5.8708-11.433-4.8427-12.32,0.17562-0.1515,2.2443-0.99987,3.986-1.8853,2.1576-1.0968,2.885-2.1036,3.3517-4.2285,0.37673-1.7153,1.7563-5.0838,3.0657-7.944,1.3094-2.8601,2.4817-9.027,3.0635-13.399,0.9773-7.344,0.96485-8.322,4.3925-11.342,2.0404-1.7976,5.9752-4.8609,8.2857-6.349,2.3105-1.4882,4.8323-3.652,5.4512-4.8084,1.2357-2.3089,4.8873-4.1394,12.497-5.659,2.7367-0.54651,6.1282-0.83746,7.2259-1.5086l3.75-2.6399v71.52,68.77l-11.5,0.10395c-12.891,0.11652-25.553-2.8277-30.968-5.0998-5.5885-2.3451-10.964-2.0345-19.491,1.4283-4.2166,1.7124-10.942,4.1465-14.792,5.4091-11.12,3.6468-18.607,6.9495-20.488,9.2727-0.95711,1.182-2.1302,3.6178-2.7595,5.7185-1.0398,3.4706-0.98314,4.056,1.864,10.14,1.7233,3.6826,3.2583,6.9823,3.2583,7.6381,0,0.65585,1.2801,4.4505,3.7614,7.9742,3.2666,4.6389,6.133,7.5188,6.8688,10.27,0.73577,2.7514-0.65912,5.3745-2.4152,8.9996-3.7234,7.6866-10.519,13.43-16.484,13.54-2.2584,0.0417-9.6166,0.27248-16.046,0.66558-9.557,0.58433-12.459,1.3222-14.227,2.9242-1.8791,1.7031-4.0652,1.7527-15.882,2.0406-1.2089,0.0294-3.4113,0.13147-5.9112,0.0355-2.4999-0.096-5.4222-1.0149-7.3209,0.2227-3.7974,2.4752-4.5002,9.0763-7.5395,13.139-3.0394,4.0628-1.4153,7.8373-2.8714,11.534-1.4562,3.6969-5.9925,7.3161-6.3528,7.5685-0.70805,0.49594-20.326,9.929-20.078,8.4711,0.24841-1.4578,5.9885-3.8065,6.747-6.3741,0.75855-2.5676,16.036-15.479,16.858-18.312,0.82237-2.8332,1.5651-5.5883,2.005-7.8431z" transform="translate(39.333333,94.528849)"/>
<path style="stroke-linejoin:miter;stroke-dashoffset:0;stroke:#f1d9b1;stroke-linecap:square;stroke-miterlimit:4;stroke-dasharray:none;stroke-width:1.245;fill:#f1d9b1;" d="m456.55,456.96c-2.8974-3.0747-7.3436-6.2788-9.4222-7.1202-4.1354-1.6741-6.0958-5.0542-6.0958-8.9364,0-1.971,1.3229-3.0519,6-6.228,5.261-3.5727,6.375-4.4737,6.375-7.3155,0-3.9317-3.3337-7.5928-10.077-13.564-2.8652-2.5369-5.8775-6.7944-7.7234-10.258-3.4874-6.543-6.6469-10.193-13.324-11.925-3.5139-0.91108-5.8164-0.60423-6.6393-1.1944-0.82293-0.59022-0.16628-2.0775,0.73816-3.0769,0.89158-0.98519,5.0478-2.7177,9.2359-4.0027,4.1882-1.285,9.0771-3.1064,10.559-4.3531,3.6448-3.0669,8.1994-11.266,10.376-20.149,0.54402-2.2204,0.31638-4.8868,0.87833-6.8055s1.9135-3.0897,2.6159-3.8195c2.2153-2.3017,2.6536-1.6618,14.827-1.6618,11.957,0,12.861,0.34346,16.314-2,3.0497-2.0696,4.9245-3.2622,10.89-3.3211,3.9631-0.0391,11.368-0.28896,16.149-0.70805,8.0891-0.70902,9.1429-1.153,13.489-4.714,1.5189-1.2446,3.4609-2.2459,4.7511-3.8794s1.9286-3.8993,2.8402-5.673c0.91164-1.7737,1.8466-3.6803,2.2298-5.3455,0.38325-1.6652,0.21483-3.089-0.0802-4.397-0.47275-2.0961-1.3263-2.926-2.0499-4.2925-0.72363-1.3664-1.4423-2.8945-3.8954-6.137-2.1189-2.8008-3.7275-5.5511-3.7275-6.1117,0-0.56063-1.4876-4.1494-3.1529-7.8222-2.6637-5.8746-3.6548-7.0102-2.7542-10.355,0.56302-2.0909,1.6881-5.1057,2.6529-5.9356,0.45905-0.39486,1.4987-1.8156,3.1346-2.6471,1.6359-0.83147,4.9931-1.9487,7.3371-2.9864,2.3441-1.0377,5.05-1.871,7.6336-2.8847,2.5835-1.0137,4.9196-1.7077,7.2739-2.467,3.025-0.97558,8.625-3.3212,11.375-4.6014,5.7431-2.6735,10.691-2.7231,15.648-0.65188,3.6009,1.5046,20.019,5.0548,24.332,5.0548,0.97163,0,2.1774-0.66596,3.2409,0.0657,1.0635,0.73164,1.9846,2.8609,2.887,4.9513,1.8047,4.1808,3.0344,11.706,5.1772,21.585,0.74287,3.4247,2.0264,8.4444,3.1578,11.002,0.75203,1.7001,2.0505,3.2095,2.396,4.7369,0.34547,1.5274,0.36292,3.1977,0.30288,4.4696-0.06,1.2719-0.0725,2.5204-0.53703,3.454-0.46447,0.93367-2.0059,1.4275-2.8738,1.9402-2.8516,1.6845-45.324,13.42-48.501,13.42-3.1693,0-17.465,4.7899-19.438,6.5752-2.758,2.496-2.9164,9.7024-0.0944,13.29,2.8896,3.6736,6.8735,3.7775,10.149-0.11514,0.69419-0.825,0.69242-2.0438,1.3387-2.4312,0.64628-0.3875,1.9406,0.0562,2.227,0.0562,0.57927,0,3.7262,2.2597,6.1034,4.9458,2.3771,2.6862,3.9844,5.7988,3.9844,6.5048,0,0.49281-2.2013,2.1046-4.4334,3.5817s-5.241,4.746-6.6864,7.2642-5.4752,8.8265-8.955,13.866c-10.603,15.354-12.232,21.297-5.9611,30.351,3.1863,4.6002,4.27,6.6831,4.6076,12.394,0.37073,6.2714,0.74266,7.3803-1.7141,8.99-1.4342,0.9397-2.9826,1.4568-2.9826,2.2185,0,0.90876-0.37059,2.6953-1.5476,3.0228-1.177,0.32753-3.1605-0.8039-4.3862-1.731-3.6276-2.7437-6.7022-2.2257-11.941,3.0932-2.7156,2.757-3.9561,4.8253-5.8087,5.4456-0.92633,0.31017-3.412,0.41461-4.6865,0.12468-1.2746-0.28992-1.3381-0.97422-2.4203-1.7415-4.7171-3.3447-7.7187-4.804-10.87-1.8839-1.5168,1.4057-3.9508,3.1801-5.411,3.1801-3.4034,0-5.304,0.93691-5.304,4.4152,0,1.667-0.7326,4.669-2.6036,6.8-2.9084,3.3124-7.2714,5.1534-7.2714,3.1461,0-1.7805-6.3033-2.2749-8.6103-0.65901-3.6029,2.5236-5.6984,1.8451-11.247-4.0426z" transform="translate(39.333333,94.528849)"/>
<path style="stroke-linejoin:miter;stroke-dashoffset:0;stroke:#c9fbb2;stroke-linecap:square;stroke-miterlimit:4;stroke-dasharray:none;stroke-width:1.245;fill:#c9fbb2;" d="m455.67,658.6c0.14163-2.2029-0.66753-4.6323-1.3306-5.6941-0.98949-1.5844-1.5087-3.7862-0.0349-5.4148,3.4528-3.8152,1.2047-5.9664-6.2962-6.0949-1.0877-0.0186-2.6263-0.30695-2.8974-0.80817-0.27105-0.50121-1.7745-1.9653-1.2919-2.8355,0.48258-0.87015,2.4512-3.0214,3.6244-4.1468,1.1732-1.1255,3.5509-1.4752,5.3517-2.7423,1.1724-0.825,1.7829-2.5697,2.1204-4.3354,0.56189-2.9395,0.43352-2.9809-2.8784-4.5602-5.3212-2.5375-7.0152-6.2012-1.2272-8.6822,2.4144-1.0349,6.5559-3.4777,6.9117-4.0534,0.68591-1.1098-1.3427-10.094-3.265-14.313-1.5033-3.2993-3.0074-2.957-3.6631,0.82863-0.46322,2.6743-1.2656,3.2841-6.6327,4.7828-3.3935,0.94758-10.007,1.7075-15.091,1.7528-7.4731,0.0666-10.735,0.01-16.378-2.204-6.406-2.5133-6.0757-2.9625-11.218-1.729-4.4106,1.0581-6.5428,1.8163-10.196,0.7934-3.4059-0.95359-6.0375-1.4892-8.4565-0.64599-5.1853,1.8076-8.0501,1.943-15.206-1.6606-3.7146-1.8707-12.243-5.3014-18.647-7.3183-6.4038-2.0169-14.093-5.0927-17.241-6.9879-5.1511-3.1018-10.105-5.3807-18.561-7.2565-1.5828-0.35113-6.2828-2.663-9.375-5.5957-3.2192-3.0532-7.4729-6.5628-10.622-7.8764-6.7204-2.8031-11.035-5.1861-12.442-7.8137-0.87796-1.6405-1.4919-3.7113,0.62703-5.378,1.6873-1.3272,2.8147-1.9981,2.8147-3.884,0-1.9074,0.33842-4.413,3-7.4882,3.1348-3.622,5-5.4332,5-8.3737,0-2.8781-0.28884-5.4334,2.053-7.677,3.0261-2.8992,4.3296-4.1597,7.331-2.4371,2.1976,1.2613,4.2684,1.9881,10.197,1.9888,4.507,0.0005,7.8712,1.3375,9.9938,0.18304,1.0613-0.57723,2.1872-3.7461,3.7403-5.2038s3.5335-1.2043,6.3038-3.9369c1.121-1.1058,1.7365-3.8763,3.1912-4.7214,1.4547-0.84511,3.7486,0.23523,5.2262-0.1687,4.5346-1.2396,4.4151-1.8125,6.7339,0.36588,2.3919,2.247,3.4081,1.886,7.0886,0.23913,1.9913-0.89101,5.9223-1.8663,9.8764-1.8418,1.977,0.0122,4.2098-0.60055,6.0838-0.26537,1.874,0.33517,3.3892,1.6183,4.9309,1.9225,3.1543,0.62226,3.0189-0.004,7.7543-4.063,2.8899-2.4769,6.3899-4.8113,7.625-5.1877,3.7433-1.1406,5.5293-2.7522,6.7455-7.8221,0.85666-3.571,1.6184-4.3784,0.7947-5.9173-0.46006-0.85965-2.6668-3.1305-2.5886-3.4364,0.0783-0.30591,1.8165-0.5219,2.4965-0.5219,0.91239,0,4.1636-3.3936,7.7512-7.0973s7.8864-7.4675,9.1442-9.7079c0.43942-0.78273,0.0591-2.8171,1.2017-4.2176s4.1832-1.9172,5.7145-3.1646c3.0626-2.4948,6.5936-6.4262,8.1521-8.2782,2.7423-3.2586,10.002-9.2056,10.53-8.4198,0.14241,0.21201-0.30883,4.2355,0.21948,5.8855,0.69057,2.1568,2.2501,3.6167,5.5485,5.194,1.2617,0.60336,2.4711-0.18851,3.806,0.86911s4.1704,3.8397,4.9341,4.841c4.9411,6.4782,10.416,9.1649,13.171,5.8458,0.87561-1.055,1.7587-1.4255,3.0499-1.3382,0.64563,0.0436,2.3534-0.68044,3.1552-0.33054,0.80176,0.3499,0.6975,1.7738,1.7191,2.1133l3.2182,1.0695,3.3663-2.2753c2.9882-2.0198,4.0323-4.3985,4.6163-7.1543,0.37742-1.7809,0.8296-5.1478,1.5279-5.889,0.69832-0.7412,2.1428,0.51828,3.5048,0.24008,1.7367-0.35474,3.7599-1.9853,5.2599-3.1652,3.5108-2.7616,5.4141-2.8266,9.4213,0.22982,5.1724,3.9452,7.9924,3.9889,14.193-1.875,2.9077-2.75,5.2544-5.625,5.8258-5.625,0.57148,0,3.203,0.79723,4.7784,1.6188,4.1822,2.1812,7.279,2.536,8.2522-0.0949,0.15959-0.43142-0.55287-1.7576-0.35166-2.0065,0.20121-0.24888,1.1911-0.54543,1.5054-0.66755,0.31427-0.12212,0.95293-0.94482,1.4517-0.99598,0.49877-0.0512,0.98265,1.7942,1.7374,1.7582,1.0709-0.0511,2.5054-0.58294,3.8966-1.1504,1.3912-0.56747,2.739-1.1706,3.6366-1.3641,5.5012-1.1861,9.251,0.62238,12.151,7.3425,1.9489,4.5168,3.5565,6.6848,5.1356,6.6848,1.7436,0,2.0749,0.24496,2.0749,3.5086,0,3.2624-0.9847,4.7121,2.3779,7.75,2.2016,1.989,4.9709,4.3664,5.5428,4.3664,0.4642,0,1.8809-0.17376,2.9949,0.72001s2.8003,2.7301,4.0535,4.0002,3.0734,2.599,3.9554,3.728c0.8819,1.129-0.0495,2.1831-0.0495,2.6535,0,2.2862-2.5074,4.8694-4.9276,3.9452-1.0023-0.38276-3.3198-1.6312-4.386-2.6214-2.0896-1.9407-2.8609-2.7464-6.6864-2.4592-2.9162,0.21894-9.0727,4.7252-10.435,7.2704-0.51713,0.96626-1.3152,1.8436-1.3152,3.0192,0,1.6151,0.79978,2.2085,2.5,2.042,4.1997-0.41111,5.7533,0.82236,6.441,6.3266,0.37953,3.0377,0.3257,6.3126-0.30021,7.9588-0.91155,2.3976-1.345,3.4034,0.60182,6.4414,1.2689,1.9801,2.4959,4.3246,3.0322,5.2099,0.53633,0.88536,2.3978,2.7344,3.3728,4.1091,0.97497,1.3746,1.6464,3.9041,1.3393,4.7044-0.3071,0.80029-4.596,4.3101-9.5308,7.1885-8.7896,5.1268-12.699,8.5466-11.837,11.106,0.74074,2.1994-2.1895,4.5283-5.2847,3.4494-3.4011-1.1856-8.776-0.36898-11.452,2.588-3.3894,3.7452-5.7955,4.5821-10.078,2.3973-4.8-2.4488-12.098-2.6629-17.301-0.48879-4.5444,1.8988-4.7548,2.0018-5.578,8.5908-0.36227,2.8995-1.1037,5.4696-1.4948,5.7114-0.39115,0.24174-3.1903,0.14479-6.3732-1.4377s-6.4102-3.263-7.172-2.9708c-2.5466,0.9772-1.1739,3.2435,2.8651,6.4425,4.493,3.5585,5.1881,5.7295,2.2005,7.8221-2.6375,1.8474-3.2854,5.1431,0.12571,6.9687,1.3621,0.72895,3.4297,2.8337,3.4374,4.0032,0.0266,4.0601,0.58586,5.5968,2.7133,5.9236,1.3629,0.20933,2.977,1.3695,2.6799,2.3062-0.25747,0.81194-1.753,5.5638-1.9485,10.101l-0.35535,8.25-3.1765,0.036c-3.8903,0.044-6.8284,3.5381-10.631,9.5347-4.4803,7.0647-5.5347,9.2809-2.0294,14.12,1.6049,2.2155,5.3092,5.5425,7.3151,6.7822,5.0932,3.1478,5.3377,6.4236-1.4619,7.8513-5.8665,1.2318-14.647,4.767-17.617,8.0486-0.99663,1.1013-2.9316,2.0023-4.1472,2.0023s-3.2293,1.15-4.6277,2.25c-1.7042,1.3406-4.1825,2.1923-7.2599,2.125l-5.7173-0.12504z" transform="translate(39.333333,94.528849)"/>
<path style="stroke-linejoin:miter;stroke-opacity:0.9372549;fill-opacity:0.93567254;stroke-dashoffset:0;stroke:#fff15c;stroke-linecap:square;stroke-miterlimit:4;stroke-dasharray:none;stroke-width:1.245;fill:#fff15c;" d="m319.62,489.98c-3.025-2.9562-5.9671-8.2855-6.6909-10.315-1.1764-3.299-0.98806-3.9814,0.72205-6.4371,1.0521-1.5108,3.1876-4.1682,3.8288-6.0582,2.0931-6.1692,4.5142-25.898,4.5502-33.693,0.0193-4.1913,0.67851-10.67,1.4649-14.245,0.78636-3.575,1.5706-7.2428,1.5899-9.0674,0.0315-2.974-0.23201-5.9954,1.7851-5.3717,1.2375,0.38264,4.4115,2.5338,6.4422,3.5582s4.2987,2.3318,5.1928,1.9887c0.8941-0.34309,4.6359-4.6341,7.704-7.7022,6.9137-6.9137,6.7478-6.4168,0.60496-15.574-5.5678-8.2997-7.1786-12.162-2.6697-13.734,5.1189-1.7844,12.223-2.193,23.164,1.2864,8.1132,2.5802,10.741,3.6389,14.164,3.1194,8.3209-1.2628,13.524-5.6012,12.445-11.971-0.69449-4.0987-3.5743-6.3082-10.511-8.8163-2.0434-0.7388-4.5618-3.0455-4.8325-3.751-0.63566-1.6565,2.0749-4.98,4.8677-5.4705,1.199-0.21062,5.5051-0.40287,10.18-1.3439,5.0497-1.0164,8.2546-2.2984,9.9577-2.2289,1.7031,0.0694,2.7794-0.88484,3.822,0.004,1.0426,0.88883,9.5515-0.50426,12.62,0.93751,1.5341,0.72089,6.8643,1.9317,7.6584,4.0534,0.39707,1.0608,1.6833,1.7965,1.6852,2.9807l0.007,4.5376c0.003,2.0483-0.438,2.79-3.25,4.0952-1.7875,0.82966-5.2119,1.5666-6.9988,1.9431-3.6015,0.75901-5.8762,3.6763-5.8762,7.0524,0,2.2954-0.0543,3.056,4.7422,6.4858l3.378,2.4155-2.423,3.1567c-1.236,1.6102-3.4028,3.5333-3.9894,5.2157-0.90246,2.5888-1.2794,2.5263,0.30041,3.7228,1.0267,0.77761,2.5222,1.6781,3.7816,1.6956,2.8486,0.0396,9.6655,3.075,11.844,5.5504,0.89842,1.021,2.7764,4.2564,4.0205,6.7314,0.31103,0.61875,0.84601,1.3954,1.5367,2.274,0.69073,0.87854,1.4122,2.609,2.3462,3.6353,0.93399,1.0263,2.0805,2.0985,3.1214,3.1606,1.0408,1.0621,2.101,1.3641,3.1122,2.3499,5.3283,5.1945,7.6045,8.7448,7.6045,10.586,0,2.9082-0.46568,2.8754-11.125,10.523-2.2,1.5783-6.0834,3.3216-8.9567,5.8274-2.8733,2.5059-4.7364,5.7744-6.8958,7.9032-4.3189,4.2577-7.2439,7.6279-7.875,7.642-0.31557,0.007-1.9233-1.13-2.6969-0.38779-0.77358,0.74219-0.71297,3.3636-1.1918,4.3878-0.95765,2.0483-4.8502,6.1367-8.4974,9.8492-3.2767,3.3354-4.9659,5.8615-7.0196,6.7452-2.0536,0.88367-4.8467-0.0001-6.0812-1.2345-0.64466-0.64466-3.2832,1.555-6.0469,2.1076-2.7637,0.55262-5.6526-0.54176-8.2982,0.72558-3.0175,1.4456-3.4303,2.8881-7.876,0.40335-2.5803-1.4422-4.0261-2.7472-4.435-2.7472-0.40888,0-3.3147,1.6133-5.999,3.7379-5.8134,4.6012-8.291,6.1198-12.958,7.0096-1.8986,0.36201-5.2326,2.1265-6.4923,3.3099-1.5729,1.4777-4.5623,1.4004-8.1731,1.6716-5.1976,0.39042-6.9456,1.0835-12.383-4.23z" transform="translate(39.333333,94.528849)"/>
<path style="stroke-linejoin:miter;stroke-dashoffset:0;stroke:#c6ecff;stroke-linecap:square;stroke-miterlimit:4;stroke-dasharray:none;stroke-width:0.155625;fill:#c6ecff;" d="m275.44,313.28c0-0.0311,1.149-2.8538,2.2477-5.0504,1.2198-2.4386,2.4452-4.4429,2.7548-5.343,0.30593-0.88919,1.4534-2.3064,2.1316-3.5716,0.85792-1.6002,1.3425-2.7114,2.0441-4.6875,0.50581-1.4245,1.2677-3.5182,1.6932-4.6525l0.77349-2.0625-1.1037-2.1169c-0.57937-1.1112-0.67479-1.5584-0.84464-1.7174-0.38484-0.36038,0.72761-0.89884,1.582-0.6145,0.43703,0.14543,1.435-0.22402,1.7593-0.20991,0.32434,0.0141,0.95005,0.4356,0.93213,0.47839-0.0179,0.0428-0.2712,1.2478-0.45991,1.9456l-0.30232,1.1179,0.21695,1.1467,0.59195,1.2717,0.0283,2.2867c0.017,1.3769-0.25875,1.48-1.2386,3.2867-1.4874,2.7425-2.8439,5.3246-5.0528,10.332-2.2182,5.0286-2.4316,5.8102-4.0011,6.7322-0.72116,0.42363-3.7525,1.5796-3.7525,1.4283z" transform="translate(39.333333,94.528849)"/>
<path style="stroke-linejoin:miter;stroke-dashoffset:0;stroke:#fefbf4;stroke-linecap:square;stroke-miterlimit:4;stroke-dasharray:none;stroke-width:1.245;fill:#fefbf4;" d="m0.61098,643.55c0-200.58-0.61791-217.18,0.89821-220.12,2.3501-4.5633,5.9754-10.25,13.708-18.825,3.7193-4.125,7.0139-9.5284,7.0158-10.48,0.0043-2.1778,6.8941-4.7292,15.269-6.8994,8.0103-2.0757,10.393-3.7094,16.289-8.6081,2.5737-2.1383,6.4477-3.7629,7.5395-3.7629,2.2291,0,7.6477,8.5555,7.6685,12.126,0.01683,2.8877,5.6263,5.4943,8.8344,4.6891,1.3078-0.32825,3.0357-1.9522,3.9925-3.4559,2.4922-3.9171,2.8892-3.3268,9.3368-3.3438,5.6691-0.015,5.459,0.1558,6.875-3.2332,0.79693-1.9073,1.324-4.0128,1.324-4.8316,0-2.3402,20.242-21.451,22.732-21.451,2.0921,0,2.6385,2.8119,2.4356,15.5-0.11433,7.15-1.4514,16.175-1.749,21.125-3.9098,65.024-2.8205,61.934-5.9478,71.366-1.835,5.5348-1.9736,4.7227-0.36512,6.5,1.4614,1.6148,2.9677,1.6383,12.05,1.6656,13.13,0.0394,16.075,1.724,14.72,9.2303l0.25,5.0417,6.625,4.0603c7.6535,4.6907,24.13,10.51,35.301,15.156,6.0363,2.5106,7.412,3.3521,8.5403,6.0526,0.89091,2.1322,2.0462,3.3808,3.5629,3.5967,1.9156,0.27262,3.611,3.3989,4.9625,8.418,2.0678,7.6789,2.4665,7.8182,6.3128,11.055,5.8714,4.9404,17.28,3.3438,23.161-3.3636,2.1304-2.4296,5.3117-3.3028,6-2.8774,2.3548,1.4554,1.2114,5.6467-3.2151,10.832-5.2631,6.1659-6.031,9.1798-2.125,10.959,2.896,1.3195-4.2353,6.6985,0.75,8.6527,38.347,15.032-1.5,5.5445-1.5,7.7804,0,3.3129-0.52288,4.4633-3.375,7.3155-3.7148,3.7148-3.6476,5.5206-1.3402,8.1046,0.77536,0.86831,1.1287,3.6287,1.2435,4.4537,0.62622,4.5001-26.263,102.29-7.7224,2.8252,0.677-3.6318-3.2414-1.4553-5.203,0.31982-2.9251,2.6472-1.0938,3.9772,3.2722,6.236,4.3777,2.2648,3.848,4.7117,0.375,5.5834-2.5339,0.63596-2.4741,0.84509-0.8694,1.8368,1.6793,1.0378,1.9303,7.3407,0.47555,10.824-0.80409,1.9252-3.6136,6.6273-6.0906,10.602-3.8688,6.208-6.928,7.7496-10.277,8.6513-2.1439,0.5773-4.4376,2.1347-6.0138,3.461-3.6728,3.0904-20.568,31.419-25.921,43.161-3.8815,8.5145-14.137,28.221-26.972,51.625-5.9903,10.923-17.353,32.102-25.07,46.75-2.4631,4.675-7.0013,12.95-9.6265,17.625s-9.2586,16.9-14.894,27.625c-5.6349,10.725-11.87,24.496-15.425,29.5l-6.1798,9-35.569-0.125-36.069,0.25z" transform="translate(39.333333,94.528849)"/>
<path style="stroke-linejoin:miter;stroke-dashoffset:0;stroke:#fefbf4;stroke-linecap:square;stroke-miterlimit:4;stroke-dasharray:none;stroke-width:1.245;fill:#fefbf4;" d="m0.73598,280.66c0-108.2-0.10514-120.05,1.3318-119.5,0.86998,0.33385,4.6279,0.35699,7.2814,0.35699,4.3323,0,5.2712,1.3291,4.8016,3.125-0.28766,1.1-1.2955,2.25-1.7814,2.25-0.48585,0-0.38337,3.8-0.38337,8.75,0,5.3333-1.1574,9.5-1.75,9.5-0.55,0-0.000227,1.7125-0.000504,3.5-0.000278,1.7875-1.1503,5.1173-2.25,8.0107-2.2751,5.9859-2.84,10.629-0.9939,12.161,0.69058,0.57313,3.1031,1.2528,4.75,1.6631,3.5946,0.89557,4.9897,2.9303,6.3864,7.8952,1.3385,4.7578,6.0793,9.2588,9.733,9.265,2.2016,0.004,3.25,0.96333,3.25,2.8046,0,2.7457,1.3582,4.075,3.7933,4.075,0.97257,0,3.4711,2.3022,5.2468,4.6577,4.8114,6.3826,10.009,9.5923,15.145,9.5923,3.6409,0,4.8394,0.69407,7.9867,3.9172,2.0366,2.0857,4.2029,4.4607,4.2029,5.125,0,0.78039,0.65714,0.2166,3.803,0.70784l5.428,0.75,0.93237,5.8365c0.66278,4.1489,1.7057,6.1648,5.0067,10.853,5.6118,7.9695,9.014,16.972,9.8669,25.634,0.63345,6.4328,0.88608,7.0472,4.9703,11.414,2.4261,2.5937,4.6827,6.1173,5.0146,7.6773,1.7005,7.9923,1.2778,8.4614-4.4106,8.4614-4.5493,0-5.4611,0.38373-10.243,4.0727-4.3306,3.3411-6.9072,4.5245-9.7004,4.3364-2.7544-0.18549-4.2714,0.37219-8.42,3.5044-2.9071,2.1949-7.728,4.5652-10.713,5.573-5.2728,1.7801-6.0988,2.3513-9.9422-0.0274l-4.1397-0.98471-5.5852,4.5753c-3.2904,2.6954-6.3629,4.7003-6.8551,4.7003-0.49223,0-3.0394-1.45-4.7436-3.375-2.406-2.7176-2.7405-3.25-5.404-3.25-6.0495,0-6.4845,2.1747-5.1362,12.985,0.50957,4.0855-0.78775,5.5471-2.6396,6.0314-2.7959,0.73113-2.2341,5.2856,0.52006,8.2173,3.9005,4.1519,3.2805,8.5275-1.8738,15.391-2.5814,3.4375-5.7384,6.125-6.4046,6.125s-2.1465,0.925-2.8312,1.75c-0.68469,0.825-2.2648,4.25-2.7474,4.25-0.4985,0-0.50256-54.698-0.50256-122.36z" transform="translate(39.333333,94.528849)"/>
<path style="stroke-linejoin:miter;stroke-dashoffset:0;stroke:#c6ecff;stroke-linecap:square;stroke-miterlimit:4;stroke-dasharray:none;stroke-width:1.245;fill:#c6ecff;" d="m283.55,282.98c-3.975-2.7011-4.5992-3.1252-11.323-1.9304-2.9021,0.51568-6.3457,0.44202-8.8145-0.3465-2.4688-0.78857-5.3379-3.167-8.841-6.511-3.5014-3.3423-5.9007-5.4273-7.1746-8.0065-1.274-2.5792-1.4226-5.6527-1.4226-8.4719,0-1.1839-0.2182-3.2094-0.1822-4.5314s0.32623-1.9407,0.84303-2.8112c1.0336-1.7409,3.2236-3.2389,6.349-6.1352,2.8821-2.6708,7.7676-6.2295,10.399-8.6723,3.5577-3.3032,4.6875-5.1581,5.1345-7.964,0.41374-2.5967-0.42775-4.2332-1.5946-5.5763-1.1669-1.3431-2.6592-2.3928-6.047-2.8161-2.605-0.32547-4.367,0.55855-6.1449-0.88859s-3.8218-4.7254-8.4907-9.8756l-9.6145-10.606,1.8526-2.9201c1.388-2.1879,2.852-3.1733,3.3703-8.3972,0.60453-6.0922,0.44886-6.6471,5.282-11.304l5.1393-4.9523-2.3977-2.6199c-2.0616-2.2527-2.2727-2.9349-2.2727-9.0413,0-7.6238-1.5111-11.945-5.0485-12.895-4.6914-1.2598-7.9522-0.917-11.364,1.9994-1.9042,1.6276-3.9364,3.9776-4.5161,4-0.57961,0.0223-2.6829-2.0112-4.5213-3.9079-5.6482-5.8275-14.62-7.2181-30.3-3.8742-5.225,1.1143-15.075,3.1155-22.5,4.447s-18.675,4.578-25,6.7562c-12.317,4.2415-14.293,5.4373-20.551,15.343-2.1093,3.339-3.4254,4.7734-5.5744,4.7748l-3.75,0.002v-8.7973c0-8.003,0.84841-8.5925-2.6953-12.375l-3.8203-4.0777-13.68-0.70793c-17.209-0.89057-45.462,4.1767-56.801,6.9738-5.1615,1.2732-9.507,2.8015-11.265,4.2808-1.7614,1.4822-3.8987,2.4322-4.8787,2.039-0.88549-0.35527-5.739-1.8186-10.86-2.0206l-9.5-0.37465,0.125-80.283v-79.283h158.56c89.627,0,159.7-0.24687,159.4,0.24479-0.29566,0.47839-2.1086,2.667-3.7232,3.3358-1.7383,0.72004-4.0829,2.3816-4.8412,4.2552-0.70427,1.7403-1.8845,4.5936-2.9283,6.035-1.7719,2.447-2.5422,2.075-1.0553,4.9503,0.50019,0.96726,2.1589,1.3299,2.6946,2.1519,0.5357,0.82199-0.0516,2.1033-0.0435,2.908,0.0162,1.6093-1.5858,3.3117-2.5586,4.119-0.825,0.68469-1.5,1.7915-1.5,2.4597,0,0.66812-1.8,3.7284-4,6.8007s-3.25,6.2866-3.25,7.2957-0.40074,3.9965-1.8072,6.6385c-2.2296,4.1883-3.2906,5.1078-2.3266,8.0286,0.60807,1.8425,2.7588,3.1006,3.5572,3.407,3.4164,1.311-1.2463,12.889-5.925,14.668-1.3543,0.51492-2.2484,0.97235-2.2484,2.0621,0,0.9915-1.0344,2.3077-2.1242,3.501-1.0897,1.1933-3.2347,1.7638-4.4558,1.7638-0.77018,0-2.379,0.59145-3.8806,1.7727-2.1542,1.6945-2.6147,2.2259-2.1823,4.3879,0.39618,1.9809,0.2252,3.8812-1.2693,5.2273-2.7181,2.4482-4.0125,4.2458-3.6817,5.9194,0.33084,1.6736,1.0369,2.8483,4.8199,3.8009,1.2628,0.31796,3.1442,0.23824,4.1611,0.77729s3.0442,1.5719,3.8486,2.365c0.80441,0.79309,1.5109,2.2214,2.1363,3.3015,0.62536,1.0801,0.41955,3.0619,0.89928,4.4619,1.1783,3.4385,2.3217,4.0383,1.234,6-2.8507,5.1412-2.4382,11.986,1.78,11.986,2.342,0,4.0898-0.0802,4.0898,5.541,0,5.6903-0.15,7.0348-3.9322,10.03-3.5178,2.7861-4.6243,2.596-4.1331,5.6229,0.48208,2.9707,0.32397,4.5646-2.1952,5.8673-1.5781,0.81605-3.5182,2.7381-4.6169,3.9657s-4.3134,3.1948-6.6855,4.2188c-2.372,1.024-4.6167,2.5407-5.4464,3.3704-0.82973,0.82974-4.0583,1.6336-4.883,1.6336-1.9788,0-12.043,8.3415-14.6,11.592-1.4253,1.812-2.2581,3.6851-2.2581,7.3715,0,2.9437,0.59789,3.9767,2.1963,6.8757,1.5984,2.8991,3.5724,6.4143,7.0746,9.8225,3.3207,3.2316,4.862,4.1679,9.4594,4.7918,1.6905,0.22941,3.8781-0.0428,5.2714,0.42905,1.3933,0.47188,2.6174,2.1879,3.631,2.8938,1.0136,0.70588,1.8166,1.4016,2.3679,2.333,0.55125,0.9314,0.35071,2.3484,0.3571,3.4969,0.024,4.3077-5.4062,11.102-16.338,20.377-5.3699,4.5559-9.1458,8.1689-9.5232,9.673-0.98733,3.9338,1.6968,9.9679,5.7172,14.176,5.3603,5.6107,6.1342,6.4176,14.836,6.4176,1.9092,0,4.0065-0.33049,5.7421-0.0298s3.9844,0.98256,5.4466,1.5073c1.4622,0.52473,2.6379,1.6423,3.7271,2.3144,1.0892,0.67211,2.092,1.8988,2.7085,2.6416,2.3828,2.8711-2.4637,1.3536-6.2227-1.2008l4.125,4z" transform="translate(39.333333,94.528849)"/>
<path style="stroke-linejoin:miter;stroke-dashoffset:0;stroke:#fec9e5;stroke-linecap:square;stroke-miterlimit:4;stroke-dasharray:none;stroke-width:1.245;fill:#fec9e5;" d="m358.92,511.87c-1.4163-3.725-3.6725-5.6497-7.3203-4.8416-1.7925,0.39708-6.3785,2.773-11.039,2.1802l-10.155-1.2918-3.3448-3.9162c-1.9712-2.3079-4.0698-3.251-4.3448-4.8824-0.42063-2.4954-0.81483-5.3644-6.4584-8.1372-3.6896-1.8128-7.2297-3.8139-7.8668-5.058s-3.27-4.1685-5.182-6.512l-3.7736-4.625,2.6236-7.375c1.4038-3.9461,4.1582-8.9108,4.8117-11.246,0.65342-2.3354-0.0446-4.0135,0.58765-4.6458,0.63477-0.63477,2.1474-2.5357,1.8364-4.0906-0.39975-1.9988-0.64705-4.291,1.2879-7.5928,3.7607-6.4171,4.3832-8.5696-2.6729-9.5401-2.4764-0.3406-4.431-0.28413-5.2666-0.80491-0.83552-0.52078-0.92693-2.4938-0.92693-4.1434,0-2.5652-0.30403-3.5158,1.8974-5.1434,1.5936-1.1782,5.0238-6.2739,5.331-7.8098,0.43625-2.1812,1.4108-1.7681,5.7888-3.9101,5.4448-2.6639,5.7373-2.0832,10.01-11.47l3.9303-8.6355c0.35189-0.77315,1.2201-3.0253,1.1883-3.956s-1.2047-1.8661-1.2832-2.7344c-0.0786-0.8683,1.3122-2.5445,1.1577-3.2066-0.15454-0.66214-0.60437-3.1852-0.86411-3.4975-1.039-1.2488-2.9114-1.8732-5.8024-3.2727-3.2172-1.5574-5.2117-2.175-11.462-2.175h-8.9771l-5.1603-5.218c-2.46-2.4876-4.1408-2.9334-5.4679-5.3569-1.3272-2.4235-2.3957-6.7271-1.9163-8.6372,0.30796-1.227,4.7581-5.3184,9.7364-9.3974,15.466-12.672,20.457-20.845,13.846-27.327-2.2127-2.1698-4.0178-3.1931-8.3331-3.6384-5.1695-0.53355-6.4504-0.59393-10.855-5.3989-1.3101-1.4291-3.1505-4.1977-5.1512-6.5235s-3.0673-4.2394-3.1129-5.8667l-0.10694-3.8154,0.48194-4.5161,5.2983-5.9793,5.1353-3.8484c1.1474,0.35348,3.1865-3.2848,4.3502-3.2161,1.1637,0.0688,3.577-0.40533,4.7228-0.72343,1.1459-0.3181,0.64934-1.2302,1.7434-2.0373,1.8637-1.375,5.3676-2.5,6.1059-2.5,0.73828,0,2.7912-2.3625,6.3954-5.25,5.9289-4.75,6.7566-3.6616,6.3153-6.3846-0.20965-1.2936-0.45678-3.9618-0.25788-4.9028,0.1989-0.94094,0.84382-0.15458,2.4182-1.5391l4.8981-4.3072,0.125-6.5832,0.375-6.7082-1.263-0.97759c-0.79084-0.61214-2.5618,0.0248-3.2193-0.35364-0.65742-0.37843-1.3911-0.6062-1.6766-1.1997-0.28554-0.5935-1.498-1.6777-1.363-2.5191,0.13502-0.84135-0.38253-2.1898,0.2217-3.3118,1.3551-2.5162,3.3737-5.1906,2.5212-6.7835-0.60288-1.1265-1.3461-3.2502-1.3461-4.261,0-3.5092-5.1216-8.5859-10.009-9.8166-1.4687-0.36982-1.5591-0.25792-2.6834-0.50769-1.1244-0.24977-2.5326-1.2362-3.1372-1.5528-0.60452-0.31653-1.1553-0.58814-1.0645-1.1582,0.0908-0.57011-0.0519-1.6887,0.90962-2.6992,1.2531-1.3169,2.4109-2.2339,3.1599-3.0585,0.74899-0.82466,2.3392-1.932,2.457-2.8795,0.1178-0.94748-2.1764-2.5542-1.7806-4.0073,0.39578-1.4531,2.8365-3.179,4.4888-3.6437,4.4916-1.2632,8.2847-3.6136,8.2847-5.2873,0-0.95558,1.1414-2.8395,2.2309-3.4226,1.3384-0.7163,2.4632-1.5558,3.5249-2.9978,1.0617-1.4419,2.6853-3.6112,3.2715-5.2372,0.58612-1.6259-0.11527-2.7084-0.20361-3.9767-0.0883-1.2683,0.31138-2.0973-0.65029-2.4664-2.9431-1.1294-4.6681-5.7524-2.5536-9.3361,0.5272-0.89354,2.2556-1.9604,2.7776-3.1607,0.52198-1.2004-0.16245-2.5343,0.0391-3.462,0.20156-0.9277,0.36244-2.3568,0.88568-3.3653,0.52325-1.0085,2.1471-3.0302,2.3932-3.5081,0.24609-0.47795,1.2603-0.99594,2.0895-2.3079,0.82911-1.312,1.8481-2.793,2.8536-4.4469,0.50276-0.82696,1.0959-2.5097,1.6603-3.5486,0.56439-1.0389,1.1-1.4341,1.4877-2.186,0.77535-1.5038,0.58396-2.5594,0.72252-3.4209,0.25514-1.5863,0.0342-3.7198-0.75215-4.3724-1.5907-1.3202-2.1488-5.3178-0.67831-6.2266,0.55834-0.34507,1.6671-2.8545,2.464-4.7617,0.98413-2.3554,2.4164-3.7748,4.8182-4.7784,1.9448-0.81259,4.3693-1.9214,4.3693-2.464,0-1.4889,6.2194-0.84972,9.4306,0.81084,3.5178,1.8191,8.2445,7.2929,8.2113,9.5293-0.0119,0.80089-0.49258,1.9031-1.2608,3.1198-0.76826,1.2167-1.1991,2.6728-2.3612,3.9315-1.1621,1.2588-2.3055,2.9451-3.4989,3.8722-1.1934,0.92713-3.0618,0.97004-3.924,1.1919-2.6905,0.69224-3.2642,1.5068-4.0494,4.6389-0.83318,3.3235-0.0871,4.1413,2.4649,8.8591,0.80228,1.4831,1.414,3.5526,2.2519,4.3074,0.83796,0.75478,1.9022,0.19485,2.1096,0.41911l5.5622,6.0148,0.19363,10.014,5.3973,4.161c1.4209,1.0954,2.4415,1.6721,3.8262,3.3177s2.115,3.7003,2.5905,3.7003c1.0355,0,3.0137,0.47052,3.3474,1.2062,0.16688,0.36784,0.29766,1.052-0.056,1.5267-0.35371,0.47475-1.1919,0.74011-1.463,1.2704-1.2223,2.3914-0.50912,3.4993-0.99034,4.5002s-1.4069,1.8947-1.4069,2.8579c0,1.1075,2.2346,2.5136,2.6741,2.5136,0.273,0-0.492,0.86316-0.29308,1.4569,0.19893,0.59378,0.61179,1.5432,0.74053,2.4656,0.12873,0.92246,0.72334,1.443,0.78577,2.4291,0.0624,0.98606,0.0927,4.0626,0.0927,4.8472,0,1.4063,1.1211,1.9493,1.8802,3.804,2.7706,6.769,2.2166,8.2919,0.0366,8.9839-2.9597,0.93936-2.2423,9.0592,0.7082,10.638,2.8954,1.5496,1.9948,3.0939-2.4537,5.5941-5.0272,2.8255-5.1222,3.4808-2.7116,8.4702,0.60473,1.2516,1.4364,2.7611,2.6411,3.9704,1.2046,1.2094,2.7822,2.1186,4.3787,3.17,1.5964,1.0513,3.3367,1.9947,5.1168,2.7723,1.7801,0.77756,3.5999,1.3893,5.3555,1.7774,6.0567,1.3388,11.804,5.293,14.284,8.649,1.7848,2.4145,0.91426,2.1518-0.76629,5.2724-1.2324,2.2884-1.6814,4.1751-1.2168,6.652,0.71858,3.8304,1.6195,5.2935,6.6131,7.8228,3.6759,1.8619,5.9096,1.0166,12.82-2.4819,2.9348-1.4858,5.2996-1.4916,7.4764-1.5336,2.1768-0.0421,4.1656-0.12053,6.8486,1.2482,7.4354,3.7932,8.5955,4.7539,15.277,2.422,8.3384-2.9101,11.399-2.7994,15.87,4.1892,3.2034,5.0077,3.3592,5.9061,5.7721,5.3806,1.482-0.32279,6.4321-1.3872,10.695-1.7542,6.3707-0.54854,7.375,0.40469,7.375-0.99486,0-0.93641,0.49402-3.8697,1.0978-5.6018,0.93821-2.6914,1.5873-3.7742,4.4648-3.7742,1.7932,0,3.0901,0.0533,3.9386-1.0118,0.84854-1.0651,1.2488-3.2486,1.2488-5.222,0-1.1634,2.1269-3.2867,3.9624-5.1768,1.0443-1.0753,1.7977,0.66348,2.5564-1.1708s1.7727-5.6167,2.3382-7.4844c1.6842-5.5626,2.1953-6.0146,0.66256-8.3538-0.90455-1.3805-2.3946-3.2552-2.3946-3.5549,0-0.29969,2.1081-1.178,4.6847-2.4102,3.1394-1.5013,5.5173-3.7315,5.951-5.3565,0.43367-1.625-1.0769-2.6448-3.2146-4.2252-2.3342-1.7257-1.6711-2.671-1.6711-5.6986,0-2.1184-0.58375-3.3469,0.47722-4.8807s3.7667-3.373,6.3456-3.7128c0.80498-0.10608,1.7812,0.36623,2.6864,0.18659,0.9052-0.17965,1.7394-1.0113,2.2604-1.2252,1.2857-0.52786,3.026-0.50621,3.8315,0.59531,1.4824,2.0273,5.1702,4.1977,7.028,3.4848,1.5292-0.58679,3.2459-3.8911,3.2459-9.158,0-0.92813-1.3731-1.9594-1.1878-2.8836,0.18531-0.92422,1.929-1.7414,2.1628-1.7414,0.46748,0,2.6886,2.2069,4.9358,3.8347,2.2472,1.6279,6.2987,3.6232,8.2394,4.4341,3.752,1.5677,6.1708,5.6852,4.1484,7.7076-1.5806,1.5806-0.72613,4.5431,2.4004,5.3278,1.4447,0.36259,3.6402,0.96842,5.1845,2.1102,2.9683,2.1946,3.9012,2.1901,15.617-0.0853,8.255-1.6033,10.772-2.7732,13.792-6.1628,1.4291-1.6039,2.8622-2.5412,3.6431-2.5412,0.78084,0,2.2702-0.6125,3.4625-2.125,2.9126-3.6948,2.8115-8.5848-1.2981-13.57-1.7047-2.0681-2.8495-3.8485-2.8495-4.7203,0-0.87179-1.475-3.6284-3.125-5.2092s-4.4829-3.7275-4.462-4.3121,2.9582-2.4213,4.875-3.9921l4.337-3.5542,3.1533,4.0542c1.9021,2.4456,4.1064,3.0542,6.0037,3.0542,2.2255,0,3.7483,0.65895,4.7203,3.0055,0.70299,1.6972,2.0574,3.5789,4.2463,4.8091,1.5396,0.86529,4.1649,2.9933,4.7804,4.0618,0.61545,1.0684-0.52898,2.0773-0.52898,3.2042,0,2.7806,0.97007,1.6048,6.3976,3.3154,1.5043,0.4741,1.7088,1.361,0.65004,3.0564-0.97104,1.5549-0.73133,1.889,0.2036,2.8239,0.40423,0.40423,1.7796,1.3336,1.8453,2.0126,0.0657,0.67904-1.8032,1.6077-2.1376,2.0106-1.5954,1.9223-0.0784,2.3016,3.2597,2.9693,3.9145,0.78291,6.7814,4.4506,6.7814,6.9026,0,2.3006-8.04,4.3984-12.687,4.4317-3.3851,0.0243-11.063,4.1633-11.063,5.6162,0,0.50741-3.6251,3.4701-8.2085,6.8894-8.13,6.065-8.487,5.6047-9.625,11.114-0.64156,3.1061-0.80967,7.4954-0.83192,8.8373-0.0222,1.3419-2.3012,5.8898-4.1477,10.565-1.3067,3.3083-2.1304,6.9103-2.9292,8.6145-0.79886,1.7042-1.5729,1.5106-2.7803,2.2275-2.2865,1.3577-3.4773,2.3246-3.4773,4.3779,0,3.9242,2.6974,8.7422,5.2917,10.559,2.0766,1.4545,2.2286,2.6397,0.62342,4.4134-1.9426,2.1466-7.9846,3.8074-12.412,3.8074-2.2597,0-4.0465,1.1103-6.009,3.6833-2.278,2.9867-2.9918,3.3851-2.979,9.75,0.008,4.0242,0.45735,9.0667,1.1511,10.442,0.56922,1.1282,1.6725,2.4873,3.0331,2.7606,1.3606,0.27326,2.9786-0.53933,6.5771-0.25455,5.8168,0.46034,9.1399,1.4703,11.557,2.3086,2.4169,0.83824,3.9277,1.5048,6.12,4.2782,2.1572,2.729,4.4221,7.476,4.4221,7.9517,0,0.91821-3.3067,0.98088-13,2.0059-12.515,1.3234-50.669,19.507-53.996,25.942-1.0988,2.1249-2.3596,9.2724-2.1575,13.445,0.20218,4.1725,1.8674,5.3699,3.1206,9.0946,1.1507,3.4202,3.9257,9.5982,6.625,14.187,2.6993,4.5892,5.1578,8.3962,5.1578,9.2239,0,0.82768-0.47756,4.1631-1.3668,6.037-1.9545,4.1188-5.8242,5.5067-23.133,7.8779-6.325,0.86648-13.65,1.869-16.125,2.3805-2.475,0.51156-7.9,1.7143-11.75,2.0617-5.3826,0.48564-9.2562,1.4312-12.466,1.7644-3.21,0.33318-5.7562,0.0539-7.9842,1.5899-2.2279,1.5359-4.8875,3.887-6.5739,6.9809s-2.3998,6.9305-3.2352,10.938c-1.9467,9.3363-5.6785,14.294-11.78,17.386-5.6168,2.8463-6.9012,1.7764-11.423-2.4717-4.6115-4.3326-3.4816-8.7433,3.9626-10.115,5.7824-1.0654,8.6714-1.5811,9.4328-6.6588,0.59525-3.9694,0.49718-5.9097-1.5609-8.1063-3.371-3.5979-6.2559-4.8343-15.386-5.6175-6.4116-0.54997-9.4208-0.40874-15.771,1.2253-4.3505,1.1194-9.2918,2.2853-10.828,2.2853-2.3729,0-4.6421,0.88169-6.3922,1.5069-1.7501,0.62517-0.51676-1.0308-2.0274,1.8427l-1.1693,2.2243c-0.5373,1.022-0.0476,2.6844,2.0569,3.5265,1.6733,0.66951,6.2846,2.2426,7.5728,2.961,1.2883,0.71836,2.8785,1.5819,3.7595,2.3323,0.88105,0.75039,1.1779,2.3876,1.6296,3.1532,0.45163,0.76562,0.683,1.5346,0.683,2.2987,0,5.3423-5.8577,10.529-12.222,10.529-1.7579,0-7.7857-1.6-12.937-3.25-10.472-3.3544-17.877-3.9727-23.501-1.6228-3.4904,1.4584-3.7012,0.99669-3.066,4.9695,0.35992,2.2508,1.879,6.8873,3.9868,9.9978,1.5044,2.2201,3.5308,3.9397,4.3112,5.3707,0.78037,1.431,1.1897,2.6984,1.2102,3.7641,0.0204,1.0658-0.848,2.5548-1.6233,3.6792-0.77528,1.1244-2.2074,0.13398-3.8142,1.7408-1.5402,1.5402-3.4855,5.6591-4.7365,6.768s-2.6828,0.70769-2.9459,0.70769c-0.52621,0-2.441-1.3199-5.9551-2.8898l-6.7483-3.0148-0.70296,4.9391c-0.51161,3.5947-0.18188,4.9107-0.46168,5.6398-0.19424,0.50617-0.47216,3.9132-0.62858,4.0293-0.15642,0.11605-0.56633,1.6911-0.77454,1.5332-0.20821-0.15789-0.33971,3.7013-0.68931,3.3856-0.3496-0.31567-3.7369-8.4899-3.3729-7.9135z"/>
<path style="stroke-linejoin:miter;stroke-dashoffset:0;stroke:#fefbf4;stroke-linecap:square;stroke-miterlimit:4;stroke-dasharray:none;stroke-width:1.245;fill:#fefbf4;" d="m479.74,861.58c0-0.21213,1.4222-2.6746,2.2438-4.25,0.82161-1.5754,1.4966-3.9663,1.5-5.7714,0.009-4.7727,1.8038-10.398,5.4964-13.288,4.105-3.2127,4.5061-2.8941-1.7102-6.9297-2.5416-1.65-5.9895-5.4602-6.7454-6.6338-1.195-1.8554-1.0244-3.7337,0.47459-5.2326,2.2657-2.2657,9.7043-0.96145,12.379,1.9096,2.6958,2.8936,4.0771,2.8556,8.6702-0.83554,4.1902-3.3673,5.0439-4.7765,2.5086-6.8806-0.85677-0.71106-1.9213-2.7613-2.6712-4.556-1.2966-3.1031-5.078-6.146-8.0518-6.146-2.1242,0-8.9695-8.9566-8.967-12.163,0.003-4.1768,5.2344-14.572,11.634-21.809,7.1344-8.0674,15.091-19.203,15.114-21.152,0.01-0.825,1.6324-6.0404,2.9952-12.048,4.5302-19.972,12.293-33.27,27.004-44.399,4.95-3.7447,11.775-9.6698,12.875-10.723,1.9839-1.8986,2.7223-0.19574,31.625,28.176l29.125,28.59v61.889,61.889l-66.625,0.375c-36.849,0.20741-68.875,0.20144-68.875-0.0107z" transform="translate(39.333333,94.528849)"/>
<path style="stroke-linejoin:miter;stroke:#000000;stroke-linecap:butt;stroke-width:1px;fill:#f1d9b1;" d="m54.5,256.2-1.3333,5.3333-1.8333,0.5-0.16667,17.167-1.3333,0.5-0.16667,6.3333-2,4-1.3333,4.5-1,3.6667,0.16667,3.6667,2,2.1667,3.5,0.5,2.8333,0.5,3.3333,5,0.83333,4.3333,1.8333,3.1667,2.6667,2.3333,1.8333,1.8333,6,0,0.16667,4.8333,2.6667,2.5,3.1667,0.16667,2.3333,2.5,1.3333,2.5,2.8333,3.3333,2.8333,2,2.3333,1,1.5,2.1667,9.3333,0.16666,4,3.8333,3.1667,3.8333,0.83333,2,9.5,0.66667,1.6667,11.333,8.3333,11.833,1.8333,4.6667,1.8333,4,1.6667,5.1667,0.66666,11.833,8,8.1667,2,4.8333,1.1667,8.5-11.5,0.66667-7.6667,6.1667-3,2-6.8333-0.33333-10.5,7.8333-5,1.3333-5.5,2.3333-2.6667-0.66667-4.6667-2.5-2.3333-0.16666-3.1667,3.1667-7,6.3333-3,0.16666-3.1667-3.5-2.3333-2.6667-2.8333-0.83334-3.8333-0.16666-2.3333,2.3333-1,2.3333l-0.167,3.18,1.5,3,0.33333,4.6667,0.16667,3-3.8333,1-0.66667,1.5-0.33333,2.6667,1.1667,2.6667,2,1.8333,1.6667,1.5,0.16667,6.6667-4,6-5.168,6.16-2.8333,1-2.167,2.16-2,2.5-1.5417,2.1667-0.125,20.25,3.3333-6.25,2-2.1667,3.6667-5.3333,4.1667-4.3333,6.1667-7.1667,2.6667-2.8333v-3.5l6.8333-3.8333,7.833-2.34,7-1.8333,7.3333-4.1667,4-3.5,3-3,5.8333-0.16667,5,9.1667,0.16666,4.6667,2.8333,1.8333,3.8333,2.6667,2.8333-1,2.3333-2.1667,2.3333-3.8333,3.6667-1.1667,6.3333,0.16667,4-0.83334,1.5-3.5,0.33333-5.3333,20.68-19.84,5-0.33334,0.66667,26.333-2.3333,4.8333-0.16666,22.833-0.83334,14.667-0.83333,9.5-0.66667,13.833-1.1667,10.333-2.8333,6.8333-1,4.3333,2.3333,3,20.5-0.33333,4.6667,3.5,0.16667,5.6667,0.5,5.5,10.333,5.6667,10,3.6667,8.6667,4,9.8333,4.8333,7.3333,2.6667,4.3333,2.3333,1,5,5.3333,1.3333,1.6667,5.5,1.5,6.6667,2.6667,4.5,2.8333,3,3.3333,1.8333h7l4.8333-1.3333,5-1.6667,3.3333-4.5,2.5-2.5,2-1,2,3v3l-1,4.3333-3.1667,2.8333-2.5,2.5-2.1667,3.6667,0.16666,3.3333,2.8333,1.3333,2.1667,1.6667v3.1667l-1.5,2.6667-1.1667,3.3333-0.5,3.6667-0.16667,4.5-1.6667,3.5-4,3.3333-1.5,2.5,0.16667,2.3333,2.3333,2.3333,1,1.6667,0.33334,2.5-0.66667,3.1667-4.6667,0.16667-3-1.5-3-1.5-3,3-0.33333,2.5,3.6667,2.3333,2.5,0.5,1.8333,2v2l-1.8333,1.3333-2.8333,0.33334,1,1.6667,0.83334,2.3333,0.83333,3.5-1,3.8333-2.6667,5-7.3333,11.833-2.8333,2.5-4,0.83334-4.1667,2.1667-4.5,4.3333-4,6.8333-8.1667,13.333-3.6667,6.3333-3.5,5.3333-1.8333,4.6667-4.3333,9.1667-4.1667,8.1667-4.1667,7.8333-5.8333,10.5-4.5,9.1667-3.3333,6.5-12.833,22.5-7.8333,15.5-6.3333,11.167-2.1667,4.8333-12.833,23-6.1667,11.833-15.667,29.667-9.1667,16.333,405.33,0.16667,3.8333-5.5,1-3.1667,0.16666-5.3333,1.1667-4.3333,1.8333-3.3333,3.1667-2.6667,2.8333-1.5-1-2.3333-3.1667-1.8333-4.1667-3-4.1667-4-0.66666-3.1667,1.8333-2.8333,4.1667-0.83333,3.5,0.33333,4,0.83333,1.3333,2.8333,2.3333,0.83333,2.8333-0.16667,2-1.8333,3.3333-2.5,2-1.5-0.5-1.6667-1.8333-2-1.6667-2-1.1667-3.5-2.5-2.8333-4-1.5-3.1667-0.83333-4.8333-6.1667-1.8333-3.3333-0.5-3.8333,1.5-4.1667,2.8333-4.8333,2.8333-6,5.8333-6.1667,5.8333-6.1667,8.5-12.667,2-11,2.1667-9.1667,1.5-5.5,2.3333-5.1667,3.6667-7.1667,2.5-4,5-6.6667,4.6667-4.6667,5.6667-4.6667,4.8333-3.5,3.8333-2.8333,2.3333-1.3333,1.5-2.3333,0.33334-2.6667-28.833-34.833-3.8333-0.83333-4.1667-1.5-3.8333-1-3.5,1-7,6.3333-9.5,0.5-4.6667,0.83334-3.3333,1.8333-5.1667,2.6667-2.8333,2.8333-2.5,2h-3.6667l-3.8333,2.3333-1.3333,2-11.333,0.16667v-6-2.6667l-2.1667-3.3333,0.66666-3,2.5-2.8333-1-1.8333-2.8333-1.3333-3.1667-0.83333-2.6667,1.1667-1.8333-1.3333-1.8333-2,3-3.5,2.3333-2.6667,4.5-2.3333,1.3333-1.1667,0.83333-3.8333-0.16667-2.3333-3.3333-1.3333-2.6667-1.6667-0.66666-1.8333,0.33333-4.6667,3.1667-1.1667,3-0.83333,2-1,1.3333-2-0.66667-3.3333-1-3.8333-0.83333-2.8333-1.1667-3.6667-1-2-1.6667,0.33333-0.33334,3.3333-0.66666,2.3333-5.3333,1.6667-6,1.6667-7.5,0.16667-13.167,0.16667-2.6667-1.1667-4-1.6667-2.6667-0.83333-4.5-1.5-3,1.1667-4,1-5.8333-0.33334-3-1-3-0.5-4,1.3333-2.6667,1.1667-5.8333-0.83333-5.1667-2.3333-4.1667-2.1667-5-2.1667-6-2-15.5-5-6-2.8333-5.1667-3.6667-5.5-1.8333-4.8333-1.3333-5.3333-1-3-1.8333-3.8333-3.6667-3.3333-3.8333-4.3333-2.6667-3.6667-1.3333-2.8333-1.3333-3.6667-1.6667-3.6667-2.6667-2.5-2.6667-0.66667-3.8333,2.3333-1.5,2.1667-1.5,0.5-3.3333,0.66667-4,3.3333-3.5,3.5-4.3333,0.5-7.6667,1.8333-2,3-3.3333,3.6667-1,3.3333,2.5,2.1667,0.83333,15.333-0.33333,3.1667-2.8333,1.3333-2.5,4-2,1.6667-2.3333,1.6667-2.1667,2.3333-2.1667,2.5,0.16667,3.1667-1.3333h4.8333l3.5,3.3333h2l2-1.5,3.6667-1.3333,9.3333-0.66666h4.5l3.3333,2,3.5-0.16667,4.8333-4.1667,4-3.3333,3.5-2,2.6667-0.83333,3-3,1.3333-3.8333,0.66667-5.3333-1.6667-2.1667-1.6667-2-3-2-3.6667,0.33334-2.5,1.8333-3.6667-0.33333-2.8333,1-2,1.5s-3.5,0.83333-4,0c-0.5-0.83334-3-1.8333-3-1.8333l-4.06-2.34-2.5,0.16667-4,3.6667-3.1667,2.5-6.6667,3.8333-4.6667,0.66666-4.1667,1.6667-2.5,2.6667-4.3333,1.3333-4.6667-0.16667h-3.6667l-2.8333-2.6667-3.3333-3-3.6667-3.5-1.6667-3.1667-0.83334-1.8333-1.6667-3.6667,1-2.3333,2.1667-3.1667,1.3333-1.5,0.5-3.3333,1.3333-3.3333,1.5-9,1.5-6.3333,0.5-5.5,0.66667-7.5,0.16666-7.3333-0.66666-4.1667-2-3.6667-1.5-4.6667-2.8333-3-4.1667,0.5-3.6667,1.8333-5.8333,0.16667-8.3333-0.5-2.8333-0.33334-2.8333-4.3333-4.3333-4.1667-0.33333-5.5-3.3333-2-3.5-1.3333-5.1667-2.8333-2.6667-2.8333-1.6667-3.3333-4-3.5-3.1667-3.8333,1.6667-4.1667,1.8333-5,2.5-5.1667,1.8333-4.3333,0.33334-4.3333,2.3333-2.6667-0.16667-4.6667,0.33334-3.3333,1.6667-2,1.6667-2.5,1-2.8333-1.8333-2.3333-5.1667-1-4.5-0.33333-0.83333-4.6667,1-4.8333,5.1667-3.6667,1-4.6667,2.8333-2.1667,3.5-2.1667,2-4,2.5-5,1.1667-3.3333,2.1667-4,1.8333-5.1667,1.5-4-0.66666-3.1667-3.5-2.1667-3.5-2.1667-2.8333-0.66666-2.8333,2.1667h-8.8333l-6.8333-4.3333-5.1667-5.3333-5.1667-5.5-1.6667-5v-8.8333l2-4.3333,4.1667-3.5,4.6667-4.5,4.3333-3.8333,3.5-3,2.6667-2.5,1-3.1667,0.33333-4-2.6667-3-6-1.1667-4.8333-0.66666-18.667-21.208,1.3333-3,2-1,2-2.1667,0.16666-3.5,0.16667-5.1667,0.66667-4.3333,3.5-3.1667,4.1667-3.6667,1.8333-1.6667-4.6667-4.8333v-13.792l-3-4.6667-4-1.5-5.5,0.5-3.1667,2.3333-3.3333,3.6667-3.3333-0.16667-3.3333-3.8333-3.1667-3.3333-5.8333-1.5-10.167-0.33334-11.667,2-9,2.1667-13,2.1667-11.167,1.8333-10,3.6667-8,2.6667-5.5,1.5-3.5,3.6667-3.6667,4.3333-4.5,7-1.3333,1.6667-7.3333,0.16667,0.5-17-3.8333-5.8333-3.5-3-26,0.66667-20,2.5-18.16,2.14-7,2.1667-5.6667,1-3.333,2.83-3,2.3333-5.3333-0.66667z"/>
<path style="stroke-linejoin:miter;stroke:#000000;stroke-linecap:butt;stroke-width:1px;fill:none;" d="m314.67,407.86,3.6667-1,2.1667-2.3333,1.8333-4.1667,1.6667-3.8333,2.5-5.1667,2-3.6667,0.5-3.1667-1.1667-3,1-2.8333-0.5-3-6.3333-4.5-5.6667-1.3333-12.667,0.33334-3.5-1.8333-4.3333-4.1667-3.8333-3.5-1.8333-4.3333-1-4.5,1.6667-4.3333,4-3.3333,13.333-11.167,3-3.8333,4.1667-6,0.5-2.8333-0.16666-4-2.8333-2.3333-2.3333-3-4.8333-1-4.8333,0.33333-3-2-3-3.3333-3.3333-2.6667-3.5-5.5-2.3333-4.1667-0.0833-9.0417,5.75-6.125,10.75-7.5,1.9166-0.16667,2.3333-0.66666,2-2.5,3.1667-1.3333,3.3333-1,2.3333-2.1667,2.8333-2,1.8333-2.3333,2.8333-0.83333,1.5-2-0.33334-6.3333,7.3333-5.8333,0.5-13.333-5.3333-0.5-1.6667-3.1667-0.33334-4.5,2-3.1667,1.1667-2.1667-2-3.8333,0-2.5-2-3.6667-3.6667-3.6667-3.5-1.1667-5.1667-1.1667-2.5-2.3333,0.16666-1.1667,1-2.5,3.3333-3,1.8333-2-1-2.1667-1-2.5,1.6667-1.8333,3-2,3.8333-0.66667,2.1667-2,2.3333-0.66666,0-2.5,0.83333-2,2.1667-0.5,2-1.5,1.8333-2.8333,2.6667-4.1667-0.5-5.5-2.6667-1.1667-1-3.3333-1-2,2-4.5,2.3333-2.3333,0.66666-6.8333,1.6667-1.8333,2.8333-3.6667,2-2.8333,1.5-3.3333,1.3333-2.8333,1.8333-1.6667,0.5-5.5-2.1667-2.3333-1-2.8333,0.83334-2,2.5-3.3333,1-2.8333,1.3333-2.8333,2.6667-1.5,3-0.66667,1.8333-2.5,2.8333-0.5,4.3333,0.16667,2.3333,1,3.5,1.8333,3.1667,3.1667,2.5,3.8333-0.5,3.5-1.5,2.6667-2,2.6667-1,2.1667-2.5,2.1667-3,1.3333-2.8333,0.16667-1.3333,2.8333-0.33333,5.6667,1.5,2.6667,2,3.3333,1.3333,2.3333,1.8333,0,1.6667,1.5,1.6667,2,2.1667,2.8333,0.33334,3.8333-0.16667,2.5,0.16667,4.1667,2.6667,1.6667,4.1667,3,1.5,1.5,1.3333,2,0.66667,1.3333,2.8333,0.66667,2.1667,1.8333,0.33333,1.6667-2.5,1.5-0.16666,3.3333-1.5,2.3333-0.16667,3,2.3333,0.5,0,2.8333,1.6667,2.6667,0,7,1.6667,2,0,2.1667,1,2,0.83333,2.8333,0,2.8333-3.3333,0.66667-0.16667,8,2,1.5,1.8333,1,0.33334,1.8333-1.5,2-4.3333,2.3333-2.8333,2.3333-0.16667,1.1667,1.1667,1.6667,0.83333,2.5,1.5,2.8333,2.1667,1.8333,4,2.5,3.8333,2.5,4.1667,1.1667,4.5,0.66667,4.8333,2.3333,3.3333,2,2.8333,3.5,2.1667,2.8333-2.3333,3.3333-1.6667,3.3333,0.16666,2.3333,1.1667,1.8333,0.5,2.6667,2.3333,2,4,2.1667,2.5,1,4.3333-1.1667,2.6667-1.5,3.8333-2.1667,3.3333-0.66667,6-0.16666,4.8333,2.8333,4.1667,1.8333,4.3333,0.83334,4-1.8333,5-1.5,4.8333-0.33333,2.3333,0.5,2.8333,2.1667,1.8333,3.3333,2.1667,3.3333,1.8333,2.3333,7-0.66667,3.5-1.1667,6.1667,0.16667,2.5-0.5,0.83334-4.6667,1.3333-4.1667,2.6667-1,4.1667,0.16666,1.8333-2.6667-0.16667-4.1667,1.8333-2.1667,2.6667-3.3333,2-0.5,1.5-4.1667,1.1667-4,1.1667-4-0.83333-3.3333-2.5-2.3333,0.16667-2,3.5-1.6667,4.3333-1.6667,2.6667-2.6667,0.33333-2.5-3-2.6667-2.3333-1.8333,0.33333-8.8333,3.3333-2.8333,4.3333-1.3333,2.3333,0.33333,2-1.3333,4.1667-0.16667,1.1667,2.3333,2.5,1.5,2.6667,0.66667,2.1667-1.1667,0.16666-2.8333,0.66667-2.1667,0.33333-3-1.5-2.6667,2.8333-2.6667,10.667,7.3333,3.5,1.3333,2.1667,1.3333,2.5,3.3333-0.16667,3.1667-2,2.1667,1,1.8333,4,1.3333,2.5,0.66667,1.6667,2,2.3333,1,5.8333,0,3.5-1.1667,7.1667-1.3333,3.6667-0.66667,3.6667-2.3333,2-1.5,0.66666-2.1667,5-2,2.8333-2.8333,1-4.1667-1-3.6667-5.5-7-0.83334-4-3.6667-3.6667-3-2.6667,0.83333-2.6667,4.1667-2.5,3.1667-3.1667,1.6667-0.5,3.1667,4.6667,3,1.6667,1.6667,1.3333,4.5-0.33334,1.1667,3.1667,2,3.1667,3.1667,1.8333,3.6667,2.3333,1.5,2.1667-0.66666,1.8333-0.33334,1.5,3.1667,1.6667,2.1667,0.5,2.3333,1,0.16667,2.1667-1.5,2.1667,0.66666,1.5,2.1667,1,0,1.6667-2.8333,1,0.66666,2.1667,3,0.66666,3.3333,0.66667,1.3333,1.5,1.5,1.8333,0.5,1.8333-0.16667,1.8333-1.8333,1.8333-3.1667,1-3.8333,1.5-6.8333,0.5-2.8333,1.6667-3.6667,1.1667-3,4.3333-2.5,1.6667-4.5,3-8.3333,6.8333-0.33333,3.3333-1,3.5-0.5,7.5-2,6.1667-2.5,4.6667-1.6667,5.3333-0.83333,2.6667-3.5,1.8333-2.5,1.1667-0.33333,3.3333,1.3333,3.3333,1.5,4.3333,2,1.5,2.5,1.5,0.16667,1.3333-1,2-2.1667,2.3333-3,0.83334-3.5,1.1667-4.6667,0.33334-3.6667,0.83333-1.8333,2.6667-2.5,3.5,0,8.3333,0.33334,4.1667,0.66666,3.5,2.3333,2.1667,3,0.33334,13.5,0.33333,2.1667,1.8333,2.1667,0.16667,2,2.3333,4.5,6,1.8333,3-0.5,2.3333-9,0.5-10.5,1.6667-10.833,4.3333-7.3333,3.3333-9,4.3333-14.333,8-4.6667,3.3333-1.8333,3.6667-0.83333,11,1,4.1667,1.1667,2.8333,1.6667,5.3333,1.5,3.1667,1.6667,3.1667,2,3.8333,1.5,2.1667,2.1667,3.5,2,3.1667,0,2.6667-1.1667,3.8333-3,4.6667-7,2.3333-21.333,3.3333-7.1667,0.66667-6,1.6667-15,1.1667-5.8333,1.3333-6.5,1.5-6.5,6.6667-2.1667,4.5-0.16667,4-1.5,3-0.5,5.3333-1.6667,3.1667-1.5,2.6667-3,3.3333-4.5,2.5-4.1667,2-2.1667,0.33333-6-4.6667-2.1667-1.8333-0.83334-1.8333,0.33334-2.8333,1.1667-1.8333,2.1667-1.6667,3.8333-1.1667,4.8333-1.1667,3.5-2.5,0.66666-7.8333-3.5-4-6.6667-3.1667-16.5-0.83333-4,1.3333-5.3333,1.3333-6.1667,1.1667-4.5,0-4,2.3333-1.6667,2.8333,1.6667,3,3.8333,1.6667,3.6667,1.3333,3.5,2.1667,2.1667,1.8333,0.66667,2.6667,0.16667,3.6667-1.5,3-3.5,3.1667-4.3333,2.3333-6,0.33334-6.5-1.8333-8.6667-2.8333-5-1.5-5-0.5-4.8333,0.5-5.6667,1.6667-1.3333,1.3333,0.33334,3,1.3333,4.1667,3.1667,4.8333,2,2.8333,2.3333,3.6667,1,3.6667-0.83333,2.8333-4.3333,2.5-2.6667,3.5-2.6667,3.3333-3.3333,1-5.5-2.6667-6.8333-3.1667-0.5,7.6667-1.3333,7.1667-1.3333,6.8333"/>
<path style="stroke-linejoin:miter;stroke:#000000;stroke-linecap:butt;stroke-width:1px;fill:none;" d="m434,574.86,4.5-0.33333,2.1667-2,2.3333-3.1667,2.6667-2.8333,3.3333-2.8333,2.5-2.1667,1.1667-2.5,2-3,0.16666-2.3333,2.6667-0.16667,2.3333-3,4.5-3,2-2.5,2.8333-3,3.1667-3.8333,4-2.3333,3.3333-2.6667c1.0502-0.84013,3.1667-2.5,3.1667-2.5l3.16-2.34,4.6667-2.6667,1.5-2.3333,0.33333-3.3333-3.8333-6-2.6667-2.5-4.8333-3.8333-3.5-4-2.8333-4.6667-1.8333-4.3333-3.5-3.8333-3.8333-2.1667-3-1.5-6.1667-1-2.3333-1.6667,0.66666-2.8333,4-2.5,4.3333-1.3333,5.3333-1.5,5.3333-2.3333,3.6667-3.5,4.1667-7,2.8333-8.1667,1.8333-9.1667,2.5-3.3333,3.1667-2.6667,25.333-0.33334,3-1.3333,3.6667-2.8333,29.833-1.6667,3.8333-1.1667,3.8333-3.5,4.6667-4.1667,2.8333-7.3333,1.8333-3.1667-0.83333-5-2.6667-5.3333-6.6667-8.6667-0.83334-4-3.5-7-2.3333-6,2-6.8333,3.5-4.1667,6.1667-2.1667,6.6667-3.1667,11.833-3.6667,7-2.6667,3.3333-1.8333,5.3333-1.8333,7.6667-0.16666,3.5,1.3333,5,2,9.1667,1.3333,6.5,1.3333,6.6667,0.5,2.6667,5.8333,1.5,4,1.3333,5.8333,0.5,2,1.3333,4.1667,0.83333,4.5,1,4.5,1.6667,4.6667,1.6667,4.5,1.3333,2.6667v4.3333,3.6667l-6,3.6667-7.6667,2-8.6667,2.3333-8.8333,2.5-8.8333,2.3333-10.333,2.6667-8,1.3333-7.1667,2.3333-4.3333,1.5-3.3333,3.8333-0.33333,6.6667,1.8333,4,2.3333,2.5,4.8333-0.16667,2.5-2.5,1.3333-2.8333h3.5l2.5,1.8333,2.1667,2.6667,1.8333,2.5,2,2.8333,1,2.6667-2,2-6,3.6667-2.8333,4-2,3.8333-4,6.3333-4.6667,6.5-4.8333,7-2,5.3333-1.5,4,0.5,6.1667,2,4.1667,2.8333,3.5,2.1667,3.3333,0.83333,4v9.3333l-1,2.5-3.8333,2.1667-0.16667,3-2.1667,1-4-1.5-3.1667-2.3333h-2.8333l-2.6667,2-4,4.5-2.6667,2.6667-3.1667,1.6667-3.8333-0.33333-2.6667-2.5-3.1667-2.1667-4.3333-0.33333-2.5,1.1667-2,2.5-2.8333,1.1667-4-0.33333-1.6667,2-0.83333,6.3333-3.5,4.6667-3.8333,3-2.1667-0.83333-1.5-2.1667-4-0.5-2.1667,0.16667-1.6667,1.6667-3.1667,1.5-4.3333-2-2.6667-2.6667-4-4.1667-3.6667-3.6667-3.6667-1-2.5-1.8333-1.6667-2-1-1.6667,0.16667-6.1667"/>
<path style="stroke-linejoin:miter;stroke:#000000;stroke-linecap:butt;stroke-width:1px;fill:none;" d="m537.33,742.53,1.5-2,1-1.8333-1.3333-2-4.6667-3.1667-4.8333-4.8333-2.3333-3.5,0.16666-6.1667,3.5-4.3333,2-4.1667,2.6667-2.3333,3.8333-3,6-0.33334,0-14.5,1.3333-2.5,1-2-1.3333-2-3.3333-0.83333-0.83333-2.1667-0.5-3.1667-0.33334-2.6667-3.1667-1.8333-1.6667-1.5-0.5-3.3333,2.8333-1.6667,1.3333-1.6667-0.5-2.8333-2.5-2.5-2.6667-2-2.3333-2.3333-0.5-1.6667,1.1667-0.83334,2.8333,0.83334,3.5,1.8333,2.5,1.6667,3.1667,1,2,0.16666,1.1667-3.6667,0.16667-3.6667,0.66666-3.1667,0.83334-3.5,7-2.6667,2.6667,0,4-0.5,4.5,0.83333,4.1667,2.6667,3.1667,0.33333,2.6667-0.5,2.1667-2.6667,2.1667-1.8333,3.1667-1.6667,3-1,3.6667,1,2.6667,1,3.6667-2.6667-0.16666-3.3333,1.5-2.8333,4.5-3.6667,3.8333-2,3-1.6667,4.5-2.3333,3.5-3,0.66667-2.8333-0.83334-2.3333-4-4.5-0.83333-3-4-5.1667,1.5-5.5,0-3.6667-0.5-3.3333,0.16667-2.3333-1.1667-2.3333-3-2.1667-4,0.66666-0.66667-2.1667,2.5-3.6667,4.3333-3.5,3.5-1.8333,3.8333-0.33334,3.5,2.1667,1.6667,2.1667,3.6667,1,2.5-0.5,2.5-1.8333,0.16667-5-4.1667-3.6667-3.5-4-5.5-2.8333-3.5-2.8333-3-3.1667,0.33334-7.3333-5-1-1.5-3.3333-1.5-4-2.3333-4-3.5-2-4.3333-0.83334-3.3333,1-2.5,1.3333-2.5,0.66666-1.8333-1-0.83333-1.1667"/>
<path style="stroke-linejoin:miter;stroke:#000000;stroke-linecap:butt;stroke-width:1px;fill:none;" d="M454.83,481.7,456,479.03l2-1.6667,2-1.3333,2.1667-2.6667"/>
<path style="stroke-linejoin:miter;stroke:#000000;stroke-linecap:butt;stroke-width:1px;fill:none;" d="m54.208,256.03-8.25-0.625-6.5-0.25"/>
<path style="stroke-linejoin:miter;stroke:#000000;stroke-linecap:butt;stroke-width:1px;fill:none;" d="M598.88,264.12,616,264.5" transform="translate(39.333333,94.528849)"/>
<path style="stroke-linejoin:miter;stroke:#000000;stroke-linecap:butt;stroke-width:1px;fill:none;" d="m0,0,616,0,0,862.38-616,0z" transform="translate(39.333333,94.528849)"/>
<path style="stroke-linejoin:miter;stroke:#000000;stroke-linecap:butt;stroke-width:1px;fill:none;" d="m554.12,678.5,61.75,58" transform="translate(39.333333,94.528849)"/>
</g>
</svg>
